<?xml version="1.0" encoding="iso-8859-1"?>
<!-- Uploaded to: SVG Repo, www.svgrepo.com, Generator: SVG Repo Mixer Tools -->
<svg version="1.1" id="Layer_1" xmlns="http://www.w3.org/2000/svg" xmlns:xlink="http://www.w3.org/1999/xlink" 
	 viewBox="0 0 504.986 504.986" xml:space="preserve">
<rect x="28.055" y="28.055" style="fill:#FFC10D;" width="448.877" height="28.055"/>
<path style="fill:#FFFFFF;" d="M42.082,476.932h420.822c7.715,0,14.027-6.312,14.027-14.027V210.411
	c0-7.715-6.312-14.027-14.027-14.027H42.082c-7.715,0-14.027,6.312-14.027,14.027v252.493
	C28.055,470.619,34.367,476.932,42.082,476.932z"/>
<rect x="56.11" y="224.438" style="fill:#56ACE0;" width="392.767" height="224.438"/>
<g>
	<path style="fill:#194F82;" d="M434.148,84.164h56.811c7.715,0,14.027-6.312,14.027-14.027v-56.11
		C504.986,6.312,498.674,0,490.959,0H14.027C6.312,0,0,6.312,0,14.027v56.11c0,7.715,6.312,14.027,14.027,14.027h56.811
		c0,25.249,17.534,46.992,41.381,53.304v30.86H42.082C18.937,168.329,0,187.266,0,210.411v252.493
		c0,23.145,18.937,42.082,42.082,42.082h420.822c23.145,0,42.082-18.937,42.082-42.082V210.411
		c0-23.145-18.937-42.082-42.082-42.082h-69.436v-30.86C416.614,131.156,434.148,109.414,434.148,84.164z M28.055,56.11V28.055
		h448.877V56.11H28.055z M365.414,137.468v30.86H139.573v-30.86c23.847-6.312,40.679-27.353,41.381-53.304h143.079
		C324.033,109.414,341.567,131.156,365.414,137.468z M98.893,84.164h54.005c0,14.729-11.923,26.652-27.353,26.652
		C110.816,110.816,98.893,98.893,98.893,84.164z M462.904,196.384c7.715,0,14.027,6.312,14.027,14.027v252.493
		c0,7.715-6.312,14.027-14.027,14.027H42.082c-7.715,0-14.027-6.312-14.027-14.027V210.411c0-7.715,6.312-14.027,14.027-14.027
		H462.904z M379.441,110.816c-14.729,0-26.652-11.923-27.353-26.652h54.005C406.093,98.893,394.17,110.816,379.441,110.816z"/>
	<polygon style="fill:#194F82;" points="75.047,393.468 108.011,393.468 108.011,426.433 126.948,426.433 126.948,342.97 
		108.011,342.97 108.011,378.038 75.047,378.038 75.047,342.97 56.11,342.97 56.11,426.433 75.047,426.433 	"/>
	<polygon style="fill:#194F82;" points="237.063,359.101 260.208,359.101 260.208,426.433 279.145,426.433 279.145,359.101 
		302.992,359.101 302.992,342.97 237.063,342.97 	"/>
	<polygon style="fill:#194F82;" points="376.636,359.803 376.636,342.97 316.318,342.97 316.318,426.433 378.038,426.433 
		378.038,409.6 335.255,409.6 335.255,392.767 372.427,392.767 372.427,376.636 335.255,376.636 335.255,359.803 	"/>
	<polygon style="fill:#194F82;" points="413.107,342.97 394.17,342.97 394.17,426.433 448.877,426.433 448.877,409.6 413.107,409.6 
			"/>
	<polygon style="fill:#194F82;" points="77.852,294.575 93.984,283.353 110.115,294.575 103.803,275.638 119.934,264.416 
		100.296,264.416 93.984,245.479 87.671,264.416 68.033,264.416 84.164,275.638 	"/>
	<polygon style="fill:#194F82;" points="157.107,294.575 173.238,283.353 189.37,294.575 183.058,275.638 199.189,264.416 
		179.551,264.416 173.238,245.479 166.926,264.416 147.288,264.416 163.419,275.638 	"/>
	<polygon style="fill:#194F82;" points="236.362,294.575 252.493,283.353 268.625,294.575 262.312,275.638 278.444,264.416 
		258.805,264.416 252.493,245.479 246.181,264.416 226.542,264.416 242.674,275.638 	"/>
	<polygon style="fill:#194F82;" points="315.616,294.575 331.748,283.353 347.879,294.575 341.567,275.638 357.699,264.416 
		338.06,264.416 331.748,245.479 325.436,264.416 305.797,264.416 321.929,275.638 	"/>
	<polygon style="fill:#194F82;" points="394.871,294.575 411.003,283.353 427.134,294.575 420.822,275.638 436.953,264.416 
		417.315,264.416 411.003,245.479 404.69,264.416 385.052,264.416 401.184,275.638 	"/>
	<path style="fill:#194F82;" d="M186.564,427.134c27.353,0,44.186-21.742,44.186-43.485l0,0l0,0
		c0.701-21.742-16.132-43.485-44.186-43.485s-44.186,22.444-44.186,43.485l0,0l0,0C142.378,404.69,157.808,427.134,186.564,427.134z
		 M186.564,356.997c18.236,0.701,25.249,17.534,24.548,26.652c0.701,9.118-7.014,26.652-24.548,26.652
		c-9.118,0-25.249-8.416-24.548-26.652C161.315,365.414,177.447,356.997,186.564,356.997z"/>
</g>
</svg>